<?xml version="1.0" encoding="UTF-8"?>
<svg id="Layer_1" data-name="Layer 1" xmlns="http://www.w3.org/2000/svg" xmlns:xlink="http://www.w3.org/1999/xlink" viewBox="0 0 128 128">
  <defs>
    <style>
      .cls-1 {
        fill: #7da739;
      }

      .cls-2, .cls-3, .cls-4 {
        fill: #3a82d7;
      }

      .cls-2, .cls-5, .cls-6, .cls-7, .cls-8, .cls-4, .cls-9, .cls-10, .cls-11, .cls-12, .cls-13 {
        stroke-width: 0px;
      }

      .cls-2, .cls-7, .cls-9, .cls-10, .cls-11, .cls-13 {
        fill-rule: evenodd;
      }

      .cls-5 {
        fill: url(#radial-gradient);
        opacity: .43;
      }

      .cls-6, .cls-11 {
        fill: #94c245;
      }

      .cls-7 {
        fill: url(#linear-gradient-3);
      }

      .cls-14 {
        opacity: .07;
      }

      .cls-8 {
        fill: none;
      }

      .cls-9 {
        fill: url(#linear-gradient);
      }

      .cls-15 {
        font-family: MontserratRoman-Bold, Montserrat;
        font-size: 13.93px;
        font-variation-settings: 'wght' 700;
        font-weight: 700;
      }

      .cls-10 {
        fill: url(#linear-gradient-2);
      }

      .cls-12 {
        fill: #353535;
      }

      .cls-13 {
        fill: url(#linear-gradient-4);
      }
    </style>
    <linearGradient id="linear-gradient" x1="98.79" y1="72.32" x2="81.69" y2="84.37" gradientUnits="userSpaceOnUse">
      <stop offset="0" stop-color="#7da739"/>
      <stop offset=".51" stop-color="#83b933"/>
      <stop offset="1" stop-color="#94c245"/>
    </linearGradient>
    <linearGradient id="linear-gradient-2" x1="128.09" y1="64.46" x2="83.48" y2="28.43" gradientUnits="userSpaceOnUse">
      <stop offset="0" stop-color="#8bc6e7"/>
      <stop offset=".62" stop-color="#4391d7"/>
      <stop offset=".99" stop-color="#3a82d7"/>
    </linearGradient>
    <linearGradient id="linear-gradient-3" x1="93.1" y1="27.28" x2="89.95" y2="79.62" gradientUnits="userSpaceOnUse">
      <stop offset="0" stop-color="#8bc6e7"/>
      <stop offset=".62" stop-color="#4391d7"/>
      <stop offset=".99" stop-color="#0071bc"/>
    </linearGradient>
    <linearGradient id="linear-gradient-4" x1="67.06" y1="42.59" x2="76.78" y2="74.05" gradientUnits="userSpaceOnUse">
      <stop offset="0" stop-color="#8bc6e7"/>
      <stop offset=".53" stop-color="#4391d7"/>
      <stop offset=".99" stop-color="#3a82d7"/>
    </linearGradient>
    <radialGradient id="radial-gradient" cx="127.36" cy="8.26" fx="127.36" fy="8.26" r="15.16" gradientTransform="translate(-51.12 29.28) rotate(.69) scale(1.05 1.13) skewX(1.42)" gradientUnits="userSpaceOnUse">
      <stop offset=".1" stop-color="#e0edf8"/>
      <stop offset="1" stop-color="#a1c8ea"/>
    </radialGradient>
  </defs>
  <g class="cls-14">
    <path class="cls-12" d="M63.97,5.15c-31.01.03-56.24,25.22-56.32,56.24-.08,31,25.23,56.36,56.3,56.4,31.04.04,56.37-25.25,56.39-56.31.03-31.01-25.35-56.37-56.37-56.33ZM18.51,81.82c-6.21-13.93-5.17-29.59,0-40.3,7.88,21.57,15.68,42.93,23.5,64.37-8.02-3.16-18.28-12.36-23.5-24.07ZM50.02,109.14c4.89-14.22,9.79-28.44,14.68-42.66.11-.01.22-.03.34-.05,5.1,13.97,10.2,27.94,15.3,41.9-8,3.48-21.24,3.92-30.32.8ZM88.81,91.24c-5.96-17.71-11.87-35.29-17.83-53.02,1.8-.18,3.48-.33,5.15-.52,1.55-.17,2.42-.99,2.37-2.21-.05-1.32-1-2.01-2.65-1.98-6.77.11-13.54.24-20.31.3-1.83.02-3.67-.23-5.51-.3-1.48-.06-2.29.65-2.37,1.94-.08,1.3.62,2.07,2.1,2.24,1.3.15,2.62.15,3.89.41.53.11,1.22.61,1.4,1.1,2.42,6.42,4.76,12.86,7.09,19.32.18.5.21,1.16.04,1.66-3.41,10.31-6.86,20.62-10.31,30.92-.05.16-.13.32-.29.75-6.05-17.99-12.01-35.74-18.02-53.63,1.81-.18,3.48-.33,5.15-.51,1.54-.17,2.4-1,2.35-2.22-.06-1.33-.99-2.03-2.66-1.96-4.59.19-9.18.39-13.78.58-.61.03-1.23,0-1.93,0,14.65-24.29,51.57-30.77,74.53-9.58-2.71.21-4.94,1.15-6.57,3.26-2.13,2.75-2.6,5.85-1.46,9.04.81,2.25,1.96,4.41,3.18,6.48,1.99,3.39,3.87,6.79,4.73,10.68,1.07,4.83.4,9.55-.96,14.17-2.22,7.55-4.64,15.04-6.98,22.56-.04.13-.15.24-.35.53ZM89.32,104.24c.17-.57.27-1,.41-1.41,5.21-15.01,10.43-30.02,15.65-45.03,2.33-6.7,2.93-11.11,2.57-19.5,11.9,21.67,5.38,51.91-18.64,65.94Z"/>
  </g>
  <text class="cls-15" transform="translate(16.23 113.26)"><tspan class="cls-3" x="0" y="0">Self </tspan><tspan class="cls-1" x="31.21" y="0">Check-In</tspan></text>
  <g>
    <path class="cls-4" d="M23.61,50.73c-1.98,0-3.58,1.62-3.58,3.6,0,1.97,1.62,3.58,3.6,3.58,1.97,0,3.58-1.62,3.58-3.6s-1.62-3.58-3.6-3.58Z"/>
    <path class="cls-4" d="M37.95,50.73c-1.97.02-3.57,1.64-3.55,3.62.01,1.97,1.64,3.57,3.62,3.56,1.97-.02,3.57-1.64,3.56-3.62-.02-1.98-1.64-3.57-3.62-3.55Z"/>
    <path class="cls-4" d="M48.76,54.31c0,1.98,1.61,3.59,3.58,3.6,1.97,0,3.59-1.61,3.59-3.58,0-1.98-1.61-3.59-3.58-3.59-1.98,0-3.59,1.6-3.59,3.58Z"/>
    <path class="cls-6" d="M23.6,65.09c-1.98.01-3.57,1.63-3.56,3.61,0,1.97,1.63,3.58,3.61,3.57,1.97-.01,3.58-1.63,3.57-3.61-.01-1.97-1.63-3.58-3.61-3.56Z"/>
    <path class="cls-4" d="M37.97,79.45c-1.98,0-3.58,1.62-3.58,3.6,0,1.97,1.62,3.58,3.6,3.58,1.97,0,3.58-1.62,3.58-3.6s-1.62-3.58-3.6-3.58Z"/>
    <path class="cls-4" d="M52.33,79.45c-1.98,0-3.58,1.62-3.58,3.6,0,1.97,1.62,3.58,3.6,3.58,1.97,0,3.58-1.62,3.58-3.6s-1.62-3.58-3.6-3.58Z"/>
    <path class="cls-4" d="M52.33,64.96c-1.98,0-3.58,1.62-3.58,3.6,0,1.97,1.62,3.58,3.6,3.58,1.97,0,3.58-1.62,3.58-3.6s-1.62-3.58-3.6-3.58Z"/>
    <path class="cls-4" d="M23.6,79.45c-1.98.01-3.57,1.63-3.56,3.61,0,1.97,1.63,3.58,3.61,3.57,1.97-.01,3.58-1.63,3.57-3.61-.01-1.97-1.63-3.58-3.61-3.56Z"/>
    <path class="cls-6" d="M34.4,68.63c-.02,1.98,1.57,3.61,3.54,3.64,1.98.02,3.61-1.57,3.64-3.54.02-1.98-1.56-3.61-3.54-3.64-1.98-.02-3.61,1.56-3.64,3.54Z"/>
    <g>
      <path class="cls-9" d="M88.68,95.79l29.87-29.85v-.05h0l-29.87,18.11-9.8-9.75c-1.02-1.06-2.59-1.48-4.02-1.11-1.43.42-2.54,1.52-2.91,2.96-.37,1.43,0,2.96,1.06,4.02l15.68,15.66Z"/>
      <path class="cls-11" d="M88.68,84l29.87-18.11h0c1.62-1.62,1.62-4.25,0-5.87-1.66-1.62-4.25-1.62-5.92,0l-23.95,23.98Z"/>
      <path class="cls-10" d="M116.93,52.44c-1.53-7.62-6.61-14-13.73-17.1-7.08-3.1-15.21-2.59-21.83,1.48,3.75-1.48,7.95-1.8,12.07-.83,8.18,2.03,14.29,8.96,15.21,17.33.28,2.31,2.31,3.93,4.62,3.7,2.27-.28,3.88-2.31,3.65-4.57h0Z"/>
      <path class="cls-2" d="M97,63.9c4.62-4.62,4.62-12.06,0-16.68-4.58-4.62-12.07-4.62-16.69,0-4.58,4.62-4.58,12.06,0,16.68l8.37,8.36,8.32-8.36Z"/>
      <path class="cls-7" d="M71.94,44.4c2.36-3.51,5.69-6.15,9.43-7.58,6.61-4.07,14.75-4.57,21.83-1.48,7.12,3.1,12.21,9.47,13.73,17.1-1.34-11.88-9.94-21.67-21.55-24.49-6.89-1.71-13.97-.69-19.93,2.45-9.71,8.41-11.93,22.92-4.99,33.73-2.96-6.28-2.5-13.82,1.48-19.73h0Z"/>
      <path class="cls-13" d="M70.46,64.13c-6.94-10.81-4.72-25.32,4.99-33.73-4.12,2.17-7.72,5.31-10.4,9.38-6.66,9.93-6.38,22.92.69,32.58,1.34,1.85,3.93,2.26,5.78.92,1.85-1.39,2.27-3.97.92-5.82-.79-1.06-1.43-2.17-1.99-3.33h0Z"/>
      <path class="cls-5" d="M94.14,49.11c.38,2.56-2.41.3-6.1.86-3.69.55-6.88,3.71-7.27,1.15-.38-2.56,2.3-5.09,5.99-5.64,3.69-.55,7,1.07,7.38,3.63Z"/>
    </g>
    <path class="cls-8" d="M17.29,89.41h54.02v-6.33c-3.48-5.15-6.67-10.5-9.47-16.14-3.41-6.88-3.9-13.46-2.55-19.25H17.29v41.72Z"/>
    <path class="cls-8" d="M63.97,37.54c.55-.76,1.13-1.48,1.74-2.17-.57,0-1.15.01-1.73.01,0,.75,0,1.46,0,2.16Z"/>
    <path class="cls-8" d="M59.06,37.7c-.01-.76,0-1.52,0-2.31h-12.3c0,.81,0,1.55,0,2.29-.02,1.5-1.06,2.6-2.46,2.6-1.39,0-2.44-1.1-2.46-2.59,0-.76,0-1.52,0-2.27h-12.3c0,.77,0,1.49,0,2.2-.01,1.56-1.05,2.66-2.48,2.65-1.42,0-2.43-1.12-2.44-2.69,0-.73,0-1.46,0-2.22-1.75,0-3.39-.03-5.02,0-1.29.03-2.31,1.08-2.35,2.39-.03,1.15,0,2.31,0,3.46,0,.5,0,1,0,1.48h43.74c.4-.88.83-1.73,1.31-2.56-.24.08-.48.13-.75.13-1.4.01-2.46-1.08-2.48-2.57Z"/>
    <path class="cls-6" d="M71.31,89.41H17.29v-41.72h42c.41-1.74.97-3.41,1.69-4.99H17.24c0-.48,0-.98,0-1.48,0-1.15-.02-2.31,0-3.46.04-1.3,1.05-2.35,2.35-2.39,1.64-.04,3.27,0,5.02,0,0,.76,0,1.49,0,2.22.01,1.57,1.02,2.68,2.44,2.69,1.43,0,2.46-1.1,2.48-2.65,0-.72,0-1.43,0-2.2h12.3c0,.75,0,1.51,0,2.27.02,1.5,1.07,2.59,2.46,2.59,1.4,0,2.44-1.1,2.46-2.6,0-.74,0-1.48,0-2.29h12.3c0,.79,0,1.55,0,2.31.02,1.49,1.08,2.58,2.48,2.57.27,0,.51-.06.75-.13.52-.9,1.08-1.76,1.68-2.59,0-.7,0-1.41,0-2.16.58,0,1.16,0,1.73-.01,1.56-1.78,3.3-3.34,5.13-4.63-.75-.2-1.57-.31-2.44-.31-1.45,0-2.91,0-4.43,0,0-.79,0-1.5,0-2.21-.01-1.61-1.04-2.73-2.5-2.71-1.42.02-2.41,1.12-2.42,2.71,0,.73,0,1.46,0,2.17h-12.3c0-.81.01-1.57,0-2.33-.03-1.45-1.07-2.53-2.43-2.54-1.4-.01-2.46,1.07-2.48,2.57-.01.76,0,1.52,0,2.3h-12.3c0-.81.01-1.58,0-2.34-.03-1.44-1.08-2.52-2.45-2.53-1.37,0-2.44,1.07-2.46,2.51-.02.77,0,1.53,0,2.41-1.55,0-3,0-4.46,0-4.72,0-7.84,3.13-7.84,7.85,0,17.7,0,35.4,0,53.1,0,2.1.9,3,2.98,3,19.31,0,38.63,0,57.94,0,2.15,0,3.03-.88,3.03-3.03v-1.32c-1.71-2.28-3.37-4.6-4.96-6.96v6.33Z"/>
  </g>
</svg>